<?xml version="1.0" standalone="no"?><svg xmlns="http://www.w3.org/2000/svg" viewBox="0 0 1440 320"><path fill="#000b76" fill-opacity="1" d="M0,192L8,192C16,192,32,192,48,186.7C64,181,80,171,96,160C112,149,128,139,144,154.7C160,171,176,213,192,202.7C208,192,224,128,240,122.7C256,117,272,171,288,170.7C304,171,320,117,336,90.7C352,64,368,64,384,58.7C400,53,416,43,432,58.7C448,75,464,117,480,112C496,107,512,53,528,64C544,75,560,149,576,186.7C592,224,608,224,624,234.7C640,245,656,267,672,277.3C688,288,704,288,720,250.7C736,213,752,139,768,101.3C784,64,800,64,816,85.3C832,107,848,149,864,144C880,139,896,85,912,69.3C928,53,944,75,960,112C976,149,992,203,1008,202.7C1024,203,1040,149,1056,133.3C1072,117,1088,139,1104,149.3C1120,160,1136,160,1152,181.3C1168,203,1184,245,1200,240C1216,235,1232,181,1248,154.7C1264,128,1280,128,1296,138.7C1312,149,1328,171,1344,160C1360,149,1376,107,1392,101.3C1408,96,1424,128,1432,144L1440,160L1440,0L1432,0C1424,0,1408,0,1392,0C1376,0,1360,0,1344,0C1328,0,1312,0,1296,0C1280,0,1264,0,1248,0C1232,0,1216,0,1200,0C1184,0,1168,0,1152,0C1136,0,1120,0,1104,0C1088,0,1072,0,1056,0C1040,0,1024,0,1008,0C992,0,976,0,960,0C944,0,928,0,912,0C896,0,880,0,864,0C848,0,832,0,816,0C800,0,784,0,768,0C752,0,736,0,720,0C704,0,688,0,672,0C656,0,640,0,624,0C608,0,592,0,576,0C560,0,544,0,528,0C512,0,496,0,480,0C464,0,448,0,432,0C416,0,400,0,384,0C368,0,352,0,336,0C320,0,304,0,288,0C272,0,256,0,240,0C224,0,208,0,192,0C176,0,160,0,144,0C128,0,112,0,96,0C80,0,64,0,48,0C32,0,16,0,8,0L0,0Z"></path></svg>