<?xml version="1.0" standalone="no"?><svg xmlns="http://www.w3.org/2000/svg" viewBox="0 0 1440 320"><path fill="#09f638" fill-opacity="1" d="M0,0L15,26.7C30,53,60,107,90,122.7C120,139,150,117,180,133.3C210,149,240,203,270,218.7C300,235,330,213,360,208C390,203,420,213,450,197.3C480,181,510,139,540,122.7C570,107,600,117,630,106.7C660,96,690,64,720,64C750,64,780,96,810,138.7C840,181,870,235,900,245.3C930,256,960,224,990,192C1020,160,1050,128,1080,128C1110,128,1140,160,1170,160C1200,160,1230,128,1260,122.7C1290,117,1320,139,1350,176C1380,213,1410,267,1425,293.3L1440,320L1440,320L1425,320C1410,320,1380,320,1350,320C1320,320,1290,320,1260,320C1230,320,1200,320,1170,320C1140,320,1110,320,1080,320C1050,320,1020,320,990,320C960,320,930,320,900,320C870,320,840,320,810,320C780,320,750,320,720,320C690,320,660,320,630,320C600,320,570,320,540,320C510,320,480,320,450,320C420,320,390,320,360,320C330,320,300,320,270,320C240,320,210,320,180,320C150,320,120,320,90,320C60,320,30,320,15,320L0,320Z"></path></svg>